<svg id="Layer_1" data-name="Layer 1" xmlns="http://www.w3.org/2000/svg" viewBox="0 0 180 60"><defs><style>.cls-1{fill:#231f20;}.cls-2{fill:#fff;}</style></defs><rect class="cls-1" width="180" height="60" rx="16.18"/><path class="cls-2" d="M19.2,39.43V16.91H28a12.38,12.38,0,0,1,5.05.93,7.11,7.11,0,0,1,3.22,2.7,7.71,7.71,0,0,1,1.12,4.22A7.61,7.61,0,0,1,36.26,29,7.23,7.23,0,0,1,33,31.66a12.2,12.2,0,0,1-5.05.95H21l1.45-1.51v8.33Zm3.22-8L21,29.81h6.92a7.17,7.17,0,0,0,4.68-1.32,4.55,4.55,0,0,0,1.6-3.73A4.55,4.55,0,0,0,32.57,21a7.17,7.17,0,0,0-4.68-1.32H21l1.45-1.61Z"/><path class="cls-2" d="M43.53,19.1a2.1,2.1,0,0,1-1.5-.58,1.93,1.93,0,0,1-.59-1.42A2,2,0,0,1,42,15.65a2.24,2.24,0,0,1,3,0,1.86,1.86,0,0,1,.59,1.4,2,2,0,0,1-2.09,2.06ZM42,39.43v-17h3.09V39.43Z"/><path class="cls-2" d="M48.49,39.43l7.33-9.52,0,1.58-7-9.11h3.44l5.34,7H56.27l5.35-7H65l-7.08,9.17,0-1.64,7.4,9.52H61.84L56.21,32l1.26.19-5.54,7.27Z"/><path class="cls-2" d="M75.45,39.63A9.17,9.17,0,0,1,70.9,38.5a8.31,8.31,0,0,1-3.17-3.11,8.69,8.69,0,0,1-1.16-4.48,8.6,8.6,0,0,1,1.16-4.49,8.39,8.39,0,0,1,3.15-3.08,9.16,9.16,0,0,1,4.57-1.12A9.27,9.27,0,0,1,80,23.33a8.08,8.08,0,0,1,3.15,3.07,8.81,8.81,0,0,1,1.14,4.51,8.8,8.8,0,0,1-1.14,4.5A8.2,8.2,0,0,1,80,38.5,9.18,9.18,0,0,1,75.45,39.63Zm0-2.71a5.8,5.8,0,0,0,3-.74,5.16,5.16,0,0,0,2-2.1,6.51,6.51,0,0,0,.74-3.17,6.35,6.35,0,0,0-.74-3.17,5.23,5.23,0,0,0-2-2.08,5.9,5.9,0,0,0-3-.74,5.76,5.76,0,0,0-2.92.74,5.49,5.49,0,0,0-2.06,2.08,6.16,6.16,0,0,0-.78,3.17,6.31,6.31,0,0,0,.78,3.17,5.4,5.4,0,0,0,2.06,2.1A5.66,5.66,0,0,0,75.45,36.92Z"/><path class="cls-2" d="M86.14,24.92V22.38H97v2.54ZM89,39.43V20.87a5.47,5.47,0,0,1,1.47-4,5.54,5.54,0,0,1,4.17-1.5,7.52,7.52,0,0,1,1.91.24,4.21,4.21,0,0,1,1.56.76l-.93,2.35a3.55,3.55,0,0,0-1.1-.6,3.86,3.86,0,0,0-1.28-.21,2.7,2.7,0,0,0-2.06.76,3.14,3.14,0,0,0-.71,2.24v2.28l.06,1.42V39.43Z"/><path class="cls-2" d="M107,39.63a9.17,9.17,0,0,1-4.55-1.13,8.31,8.31,0,0,1-3.17-3.11,8.69,8.69,0,0,1-1.16-4.48,8.6,8.6,0,0,1,1.16-4.49,8.39,8.39,0,0,1,3.15-3.08A9.13,9.13,0,0,1,107,22.22a9.24,9.24,0,0,1,4.55,1.11,8,8,0,0,1,3.16,3.07,8.81,8.81,0,0,1,1.14,4.51,8.8,8.8,0,0,1-1.14,4.5,8.16,8.16,0,0,1-3.16,3.09A9.14,9.14,0,0,1,107,39.63Zm0-2.71a5.8,5.8,0,0,0,3-.74,5.22,5.22,0,0,0,2-2.1,6.62,6.62,0,0,0,.74-3.17,6.46,6.46,0,0,0-.74-3.17,5.3,5.3,0,0,0-2-2.08,5.9,5.9,0,0,0-3-.74,5.82,5.82,0,0,0-2.93.74A5.56,5.56,0,0,0,102,27.74a6.25,6.25,0,0,0-.77,3.17,6.41,6.41,0,0,0,.77,3.17,5.47,5.47,0,0,0,2.06,2.1A5.72,5.72,0,0,0,107,36.92Z"/><path class="cls-2" d="M120.12,39.43v-17h3V27l-.29-1.16a5.24,5.24,0,0,1,2.38-2.7,8.39,8.39,0,0,1,4.12-.93v3l-.37,0h-.34a5.21,5.21,0,0,0-3.92,1.48,5.85,5.85,0,0,0-1.45,4.28v8.49Z"/><path class="cls-2" d="M154.43,22.22a8,8,0,0,1,3.63.8,5.7,5.7,0,0,1,2.46,2.45,8.65,8.65,0,0,1,.89,4.15v9.81h-3.09V30a5.34,5.34,0,0,0-1.16-3.73A4.2,4.2,0,0,0,153.91,25a5.45,5.45,0,0,0-2.7.65,4.34,4.34,0,0,0-1.79,1.9,6.88,6.88,0,0,0-.63,3.12v8.78H145.7V30a5.39,5.39,0,0,0-1.14-3.73A4.18,4.18,0,0,0,141.3,25a5.45,5.45,0,0,0-2.68.65,4.42,4.42,0,0,0-1.8,1.9,6.74,6.74,0,0,0-.64,3.12v8.78h-3.09v-17h3v4.54l-.48-1.16a5.74,5.74,0,0,1,2.48-2.61,7.86,7.86,0,0,1,3.89-.93,7.37,7.37,0,0,1,4.22,1.2,5.76,5.76,0,0,1,2.31,3.66l-1.25-.52a6.34,6.34,0,0,1,2.7-3.15A8.37,8.37,0,0,1,154.43,22.22Z"/></svg>