<svg id="Layer_1" data-name="Layer 1" xmlns="http://www.w3.org/2000/svg" viewBox="0 0 16 16"><defs><style>.cls-1{fill:#fff;}</style></defs><circle cx="8" cy="8.03" r="7.97"/><path class="cls-1" d="M4.44,12.78V3.21H8.37a4.64,4.64,0,0,1,2,.43,3.06,3.06,0,0,1,1.32,1.22,3.66,3.66,0,0,1,.46,1.88,3.63,3.63,0,0,1-.46,1.89,3.12,3.12,0,0,1-1.32,1.22,4.51,4.51,0,0,1-2,.43H5.78l1.1-1.19v3.69ZM6.88,9.41,5.78,8.14H8.22a1.59,1.59,0,0,0,1.14-.37,1.32,1.32,0,0,0,.38-1,1.34,1.34,0,0,0-.38-1,1.55,1.55,0,0,0-1.14-.37H5.78L6.88,4.1Z"/></svg>